HIERARCHY
ROOT Bip001_Pelvis
{
  OFFSET 33.2923 95.8902 -28.781
  CHANNELS 6 Xposition Yposition Zposition Zrotation Xrotation Yrotation
  JOINT Bip001_Spine
  {
    OFFSET 1.4188e-005 10.2191 -0.0116013
    CHANNELS 3 Zrotation Xrotation Yrotation
    JOINT Bip001_L_Thigh
    {
      OFFSET 11.0458 -10.2192 0.0116197
      CHANNELS 3 Zrotation Xrotation Yrotation
      JOINT Bip001_L_Calf
      {
        OFFSET -0.707118 -44.0221 0.360014
        CHANNELS 3 Zrotation Xrotation Yrotation
        JOINT Bip001_L_Foot
        {
          OFFSET -0.651902 -40.5938 -3.56146
          CHANNELS 3 Zrotation Xrotation Yrotation
          JOINT Bip001_L_Toe0
          {
            OFFSET 0.0530839 -10.2181 13.1504
            CHANNELS 3 Zrotation Xrotation Yrotation
            End Site
            {
              OFFSET -1.02532e-005 0 7.55606
            }
          }
        }
      }
    }
    JOINT Bip001_R_Thigh
    {
      OFFSET -11.0458 -10.2191 0.0115893
      CHANNELS 3 Zrotation Xrotation Yrotation
      JOINT Bip001_R_Calf
      {
        OFFSET 0.706994 -44.0221 0.35984
        CHANNELS 3 Zrotation Xrotation Yrotation
        JOINT Bip001_R_Foot
        {
          OFFSET 0.651786 -40.5938 -3.5613
          CHANNELS 3 Zrotation Xrotation Yrotation
          JOINT Bip001_R_Toe0
          {
            OFFSET -0.0531479 -10.2181 13.1504
            CHANNELS 3 Zrotation Xrotation Yrotation
            End Site
            {
              OFFSET -1.02894e-005 0 7.55606
            }
          }
        }
      }
    }
    JOINT Bip001_Spine1
    {
      OFFSET 1.87041e-005 14.5736 1.08638
      CHANNELS 3 Zrotation Xrotation Yrotation
      JOINT Bip001_Spine2
      {
        OFFSET 2.24614e-005 14.5058 -1.69078
        CHANNELS 3 Zrotation Xrotation Yrotation
        JOINT Bip001_Neck
        {
          OFFSET 2.20278e-005 15.3945 -0.489414
          CHANNELS 3 Zrotation Xrotation Yrotation
          JOINT Bip001_L_Clavicle
          {
            OFFSET 6.06036 -0.000579998 0.00836775
            CHANNELS 3 Zrotation Xrotation Yrotation
            JOINT Bip001_L_UpperArm
            {
              OFFSET 11.5509 -0.0600302 0.00193952
              CHANNELS 3 Zrotation Xrotation Yrotation
              JOINT Bip001_L_Forearm
              {
                OFFSET 25.9523 0.0806089 -2.15551
                CHANNELS 3 Zrotation Xrotation Yrotation
                JOINT Bip001_L_Hand
                {
                  OFFSET 32.2476 0.153767 1.63968
                  CHANNELS 3 Zrotation Xrotation Yrotation
                  JOINT Bip001_L_Finger0
                  {
                    OFFSET 6.04639 -2.20976 5.90322
                    CHANNELS 3 Zrotation Xrotation Yrotation
                    End Site
                    {
                      OFFSET 4.22376 -1.43895 0.606486
                    }
                  }
                  JOINT Bip001_L_Finger1
                  {
                    OFFSET 11.0826 -0.704819 -0.198153
                    CHANNELS 3 Zrotation Xrotation Yrotation
                    End Site
                    {
                      OFFSET 6.20028 -0.397518 -0.0787166
                    }
                  }
                }
              }
            }
          }
          JOINT Bip001_R_Clavicle
          {
            OFFSET -6.06036 -0.000563197 0.00835105
            CHANNELS 3 Zrotation Xrotation Yrotation
            JOINT Bip001_R_UpperArm
            {
              OFFSET -11.5509 -0.0599978 0.00190698
              CHANNELS 3 Zrotation Xrotation Yrotation
              JOINT Bip001_R_Forearm
              {
                OFFSET -25.9523 0.080682 -2.1559
                CHANNELS 3 Zrotation Xrotation Yrotation
                JOINT Bip001_R_Hand
                {
                  OFFSET -32.2476 0.153858 1.63991
                  CHANNELS 3 Zrotation Xrotation Yrotation
                  JOINT Bip001_R_Finger0
                  {
                    OFFSET -6.04641 -2.20974 5.90321
                    CHANNELS 3 Zrotation Xrotation Yrotation
                    End Site
                    {
                      OFFSET -4.22376 -1.43894 0.606474
                    }
                  }
                  JOINT Bip001_R_Finger1
                  {
                    OFFSET -11.0826 -0.704789 -0.198184
                    CHANNELS 3 Zrotation Xrotation Yrotation
                    End Site
                    {
                      OFFSET -6.20028 -0.397501 -0.0787338
                    }
                  }
                }
              }
            }
          }
          JOINT Bip001_Head
          {
            OFFSET 1.09673e-005 11.2744 2.05948
            CHANNELS 3 Zrotation Xrotation Yrotation
            End Site
            {
              OFFSET 2.89576e-005 20.8808 -2.77728e-005
            }
          }
        }
      }
    }
  }
}
MOTION
Frames:	15
Frame Time:	0.04
33.0842 95.9125 -29.3227 0.810588 -0.194418 0.0282505 -0.28388 2.74614 -0.378915 4.03218 -3.66841 6.0237 -0.246301 6.28982 -10.092 6.14767 -0.142576 -0.313379 -2.86458 -5.5817 4.9595 -3.97583 -5.27886 -0.599733 0.588174 11.6296 -0.0592246 -5.08863 -9.80423 3.08721 2.02583 -6.90884 2.08744 -0.509606 5.50458 -0.779116 -0.509605 5.50458 -0.779135 -1.57258 -1.25687 -1.76057 -22.686 3.10581 -3.01676 -49.5645 40.7193 -2.02083 13.027 1.19495 -24.7223 7.83427 0.952422 -2.24924 -3.18055e-015 3.18055e-015 -0 -3.18055e-015 0 -0 30.4101 9.39325 18.3378 40.6953 45.6456 11.7574 -9.05597 0.236769 8.64048 -9.15378 0.434255 1.81091 -3.18055e-015 3.18055e-015 -3.18055e-015 -1.76556e-031 -3.18056e-015 -3.18055e-015 1.8893 11.1341 -2.72264 
33.0832 95.9151 -29.3302 0.810588 -0.194418 0.0282505 -0.28388 2.74614 -0.378915 4.04986 -3.66928 5.89388 -0.255459 6.29184 -9.98699 6.20967 -0.093926 -0.313378 -2.8622 -5.63906 4.95999 -3.97844 -5.27883 -0.62808 0.583457 11.6296 -0.0186602 -5.08852 -9.80617 3.08722 2.02242 -6.89051 2.06462 -0.509606 5.50458 -0.779116 -0.509605 5.50458 -0.779135 -1.59457 -1.23215 -1.74046 -22.6745 3.10559 -3.09293 -49.609 40.6516 -1.99454 13.0416 1.22551 -24.7415 7.67393 1.05528 -2.27323 -3.18055e-015 0 -0 -0 -3.18056e-015 -0 30.4698 9.33966 18.2423 40.6961 45.7103 11.7437 -9.0864 0.129881 8.72931 -9.13467 0.417055 1.8321 0 3.18055e-015 -0 3.18055e-015 0 -1.59028e-015 1.87439 11.1192 -2.70374 
33.0924 95.91 -29.3319 0.810666 -0.216126 0.00931326 -0.28388 2.74614 -0.378915 4.03307 -3.6659 5.96158 -0.237702 6.3371 -10.0163 6.0401 -0.231794 -0.29708 -2.90367 -5.57715 4.98442 -4.00222 -5.26572 -0.57413 0.603887 11.6432 -0.0420081 -5.11481 -9.82887 3.05247 2.02639 -6.90257 2.09403 -0.525182 5.50458 -0.779116 -0.525175 5.50458 -0.779135 -1.52807 -1.21812 -1.75511 -22.6818 3.10544 -3.14503 -49.6598 40.6512 -1.988 13.0043 1.15931 -24.7508 7.77745 1.11432 -2.23167 3.18055e-015 -1.27222e-014 1.59028e-015 3.18055e-015 -1.27222e-014 3.18055e-015 30.5041 9.30562 18.1222 40.7467 45.589 11.6763 -9.15478 0.147437 8.78724 -9.12927 0.503279 1.93364 3.18055e-015 0 1.59028e-015 6.36111e-015 0 -0 1.79135 11.1394 -2.67347 
33.0974 95.9073 -29.3336 0.811967 -0.22944 -0.0159823 -0.28388 2.74614 -0.378915 4.03526 -3.64671 5.89807 -0.249113 6.33087 -9.93811 6.03756 -0.218787 -0.29356 -2.89529 -5.59159 4.98345 -4.00156 -5.31303 -0.514991 0.612274 11.7497 -0.0543375 -5.1018 -9.82844 3.0332 2.02822 -6.91973 2.10403 -0.533109 5.50459 -0.77121 -0.533127 5.50459 -0.771258 -1.45402 -1.21225 -1.78065 -22.7345 3.10482 -3.18756 -49.603 40.6367 -2.00158 12.9688 1.20407 -24.825 7.82897 1.11542 -2.22776 8.82781e-032 -3.18055e-015 1.59028e-015 3.53113e-031 -6.36111e-015 3.18055e-015 30.4905 9.31038 18.1008 40.8867 45.3738 11.4113 -9.27005 0.150291 8.92378 -9.185 0.637164 2.03144 -0 0 1.59028e-015 -3.18055e-015 3.18056e-015 1.59028e-015 1.70655 11.173 -2.65178 
33.1058 95.9069 -29.3306 0.829477 -0.242524 -0.0365197 -0.28388 2.74614 -0.378915 4.01512 -3.60338 5.9518 -0.25048 6.27938 -10.0258 6.00975 -0.193037 -0.298085 -2.94534 -5.61648 4.99625 -4.02478 -5.29885 -0.549524 0.61014 11.7485 -0.0400319 -5.09682 -9.85752 3.07428 2.02837 -6.91585 2.10639 -0.545564 5.50459 -0.768292 -0.545573 5.5046 -0.768292 -1.44059 -1.25524 -1.78841 -22.7237 3.16435 -3.24394 -49.5689 40.6364 -2.05905 12.9613 1.21853 -24.7822 7.85375 1.1281 -2.27438 1.05934e-030 1.27222e-014 -4.77083e-015 3.18055e-015 9.54167e-015 -4.77083e-015 30.5038 9.3593 18.0944 41.1523 45.3064 10.994 -9.48716 -0.0667921 9.12152 -9.15379 0.855387 2.16161 9.54166e-015 -3.18055e-015 -3.18055e-015 6.36111e-015 -6.36111e-015 -1.59028e-015 1.69102 11.2328 -2.64736 
33.1162 95.9051 -29.3322 0.849378 -0.244294 -0.0604 -0.292058 2.74297 -0.378914 3.9903 -3.55854 6.05266 -0.253759 6.23623 -10.107 6.29353 -0.0639215 -0.320211 -2.84213 -5.65572 4.9546 -4.04956 -5.25443 -0.602264 0.611442 11.693 -0.025334 -5.08383 -9.86978 3.13583 2.02896 -6.92453 2.1087 -0.566126 5.48781 -0.753848 -0.566056 5.48781 -0.753976 -1.37929 -1.30872 -1.79042 -22.7675 3.22782 -3.28335 -49.5199 40.6418 -2.10507 12.9538 1.30473 -24.6999 7.85636 1.10908 -2.32529 8.82781e-032 -3.18055e-015 1.59028e-015 -3.18055e-015 3.18056e-015 3.18055e-015 30.6565 9.40605 17.9338 41.3088 45.2632 10.4753 -9.72494 -0.249826 9.39363 -9.19141 1.07482 2.30376 0 0 -1.59028e-015 0 0 -1.59028e-015 1.69526 11.2758 -2.64391 
33.1269 95.9083 -29.3323 0.862593 -0.245017 -0.0744207 -0.296376 2.73608 -0.378912 3.96597 -3.51479 5.93807 -0.264875 6.14931 -9.99115 6.34328 0.0092364 -0.326631 -2.82468 -5.69519 4.95091 -4.0696 -5.25235 -0.694728 0.606415 11.6869 0.0189728 -5.05831 -9.87629 3.19833 2.02942 -6.92947 2.11099 -0.569516 5.47478 -0.749941 -0.569652 5.47477 -0.749947 -1.39858 -1.38705 -1.79107 -22.7026 3.31468 -3.30762 -49.5053 40.6334 -2.17744 12.9861 1.40689 -24.6242 7.77767 1.08111 -2.32864 3.18055e-015 9.54166e-015 -0 3.18055e-015 6.36111e-015 -1.59028e-015 30.6947 9.47327 17.881 41.6558 45.162 9.89262 -9.98531 -0.536514 9.67399 -9.24774 1.27473 2.4641 -0 0 1.59028e-015 -0 0 1.59028e-015 1.81094 11.3122 -2.68129 
33.1344 95.9048 -29.338 0.844653 -0.25048 -0.105627 -0.298532 2.73346 -0.378911 3.95336 -3.54057 5.96373 -0.239351 6.20304 -10.0281 6.52734 0.130951 -0.343109 -2.7573 -5.8157 4.90869 -4.06652 -5.31 -0.620373 0.615628 11.794 -0.00989626 -5.05031 -9.87796 3.16756 2.03395 -6.95472 2.11348 -0.569632 5.4716 -0.745789 -0.569746 5.4716 -0.745922 -1.42757 -1.44089 -1.79376 -22.6957 3.39091 -3.36795 -49.4475 40.6297 -2.21543 13.0088 1.45793 -24.6035 7.70631 1.02636 -2.32872 -9.54166e-015 -3.18055e-015 3.18055e-015 -9.54166e-015 3.18056e-015 4.77083e-015 30.7219 9.53347 17.8897 42.0281 45.1673 9.20427 -10.3046 -1.02918 9.99522 -9.26914 1.60603 2.59133 -6.36111e-015 3.18055e-015 -0 -6.36111e-015 3.18056e-015 -0 1.8968 11.3466 -2.71557 
33.1445 95.9039 -29.3311 0.854315 -0.271149 -0.120117 -0.300884 2.73137 -0.37891 3.9729 -3.50914 5.99553 -0.261227 6.21605 -10.0317 6.29568 -0.0620136 -0.319398 -2.87999 -5.6918 4.97261 -4.07274 -5.22853 -0.595819 0.622149 11.6822 -0.0302502 -5.07165 -9.87484 3.17924 2.03549 -6.95277 2.11606 -0.583476 5.46821 -0.740632 -0.583519 5.46823 -0.740368 -1.41641 -1.43859 -1.80609 -22.6858 3.39265 -3.38434 -49.4144 40.6886 -2.2338 12.9792 1.39337 -24.6023 7.73695 1.03318 -2.32871 -3.18055e-015 9.54166e-015 -1.59028e-015 -3.18055e-015 6.36111e-015 -1.59028e-015 30.7774 9.53803 17.861 42.3518 45.4871 8.4482 -10.7049 -1.64754 10.4041 -9.23113 1.98782 2.76731 -1.76556e-031 -6.36111e-015 -1.59028e-015 3.18055e-015 -3.18056e-015 -1.59028e-015 1.93166 11.3586 -2.73527 
33.1545 95.9022 -29.3237 0.881785 -0.283042 -0.117276 -0.311308 2.72842 -0.37891 3.94389 -3.4731 5.94256 -0.269887 6.18077 -9.96304 6.44914 0.017798 -0.331889 -2.82582 -5.72659 4.92196 -4.10009 -5.23664 -0.595976 0.627177 11.7432 -0.0460637 -5.07361 -9.90615 3.18654 2.03702 -6.95129 2.12021 -0.605284 5.45874 -0.738543 -0.605014 5.45874 -0.738529 -1.3791 -1.49325 -1.82471 -22.7308 3.43554 -3.34885 -49.3851 40.668 -2.23382 12.9958 1.42945 -24.6062 7.76227 1.0207 -2.34319 3.18055e-015 3.18055e-015 -0 0 6.36111e-015 -0 30.8336 9.57158 17.7332 42.6464 45.6361 7.76419 -11.0407 -2.21594 10.7664 -9.27545 2.36412 2.95299 3.18055e-015 -6.36111e-015 -0 3.18055e-015 -3.18056e-015 -0 1.8782 11.461 -2.72591 
33.1668 95.9007 -29.3112 0.909326 -0.307432 -0.106184 -0.321336 2.72175 -0.378907 3.9161 -3.4393 5.89348 -0.266565 6.18361 -9.93781 6.24735 -0.0641342 -0.317383 -2.88171 -5.6781 4.96506 -4.12236 -5.2104 -0.578638 0.629961 11.7712 -0.0553513 -5.08752 -9.92203 3.16754 2.03828 -6.95586 2.12123 -0.625006 5.44752 -0.737054 -0.62515 5.44753 -0.736572 -1.35152 -1.49387 -1.82201 -22.7701 3.43337 -3.3458 -49.3959 40.6246 -2.2075 13.0137 1.46084 -24.61 7.77376 1.02871 -2.3508 3.18055e-015 0 1.59028e-015 0 0 -0 30.8883 9.56523 17.6634 43.1535 45.6051 6.82191 -11.4727 -2.73098 11.279 -9.31532 2.79142 3.12997 3.18055e-015 3.18055e-015 1.59028e-015 6.36111e-015 9.54167e-015 3.18055e-015 1.83759 11.5304 -2.70389 
33.1754 95.8986 -29.3005 0.951216 -0.306498 -0.0859434 -0.331858 2.71278 -0.378288 3.8654 -3.37271 5.90862 -0.282738 6.05955 -9.97659 6.60647 0.198383 -0.352294 -2.72346 -5.83692 4.87673 -4.15856 -5.22292 -0.610099 0.61859 11.8446 -0.0641088 -5.08702 -9.96273 3.19454 2.03953 -6.96078 2.12209 -0.64703 5.42748 -0.735731 -0.646957 5.42749 -0.734596 -1.33923 -1.53532 -1.80964 -22.7753 3.4641 -3.3041 -49.4558 40.565 -2.17212 13.0417 1.514 -24.6183 7.73296 1.02159 -2.35081 3.18055e-015 0 -1.59028e-015 -0 -3.18056e-015 -0 30.9333 9.61016 17.644 43.7662 45.3744 5.74202 -11.9306 -3.0938 11.8627 -9.35395 3.1754 3.49879 6.36111e-015 0 -3.18055e-015 6.36111e-015 3.18056e-015 -4.77083e-015 1.83605 11.5926 -2.68595 
33.169 95.8948 -29.2869 0.962456 -0.304182 -0.0632822 -0.337313 2.70235 -0.376711 3.86825 -3.34649 5.96941 -0.275782 6.0387 -10.1094 6.50771 0.162629 -0.345289 -2.80505 -5.83872 4.90215 -4.1593 -5.20659 -0.680911 0.609795 11.8616 -0.042452 -5.08627 -9.99608 3.20161 2.04091 -6.96755 2.12275 -0.657467 5.40679 -0.73451 -0.657493 5.40679 -0.732615 -1.30932 -1.5426 -1.79493 -22.8197 3.46445 -3.27164 -49.4924 40.5364 -2.09225 13.0624 1.54997 -24.6661 7.70102 0.991336 -2.34718 0 0 -0 8.82782e-032 -3.18056e-015 1.59028e-015 30.9384 9.61549 17.628 44.4032 45.298 4.62517 -12.393 -3.69579 12.4606 -9.4216 3.62217 3.78148 6.36111e-015 -3.18055e-015 -1.59028e-015 3.18055e-015 -3.18056e-015 -0 1.8386 11.5821 -2.67306 
33.1643 95.8962 -29.2801 0.964108 -0.301209 -0.0494615 -0.344258 2.68882 -0.374593 3.90438 -3.33852 6.01678 -0.286845 6.06043 -10.1344 6.17298 -0.0683737 -0.313671 -2.91613 -5.67059 4.98936 -4.15162 -5.18745 -0.694482 0.605622 11.856 -0.0413552 -5.08368 -9.99136 3.21738 2.04237 -6.97193 2.12318 -0.671661 5.37992 -0.733309 -0.672067 5.37994 -0.730602 -1.28463 -1.56635 -1.79974 -22.8968 3.46452 -3.20017 -49.4429 40.5963 -2.01348 12.9958 1.40353 -24.7035 7.74964 1.05616 -2.33654 3.18055e-015 -9.54166e-015 1.59028e-015 3.53113e-031 -1.27222e-014 1.59028e-015 30.9784 9.67351 17.6771 45.085 45.4059 3.30382 -12.9722 -4.5779 13.1896 -9.38857 4.1959 4.02856 -6.36111e-015 3.18055e-015 -0 -6.36111e-015 3.18056e-015 -0 1.87055 11.6583 -2.67578 
33.1499 95.8959 -29.2798 0.964856 -0.287014 -0.0136691 -0.346898 2.67817 -0.372351 3.92698 -3.3473 6.01031 -0.324378 6.06816 -10.1547 6.38993 0.0566295 -0.332006 -2.81686 -5.73643 4.9328 -4.13409 -5.18343 -0.693899 0.604449 11.864 -0.0577075 -5.08839 -10.001 3.18558 2.04783 -6.98865 2.1234 -0.68299 5.35581 -0.732064 -0.683462 5.35583 -0.727952 -1.30793 -1.68524 -1.80069 -22.9348 3.53322 -2.99866 -49.3477 40.6976 -2.02397 12.9509 1.32437 -24.704 7.77732 1.05777 -2.32758 -3.18055e-015 1.27222e-014 -1.59028e-015 5.29669e-031 9.54167e-015 -3.18055e-015 31.0694 9.82242 17.7025 45.8371 45.0498 1.80135 -13.7001 -4.98309 14.2744 -9.10899 4.79732 4.46812 -3.18055e-015 6.36111e-015 1.59028e-015 -3.18055e-015 9.54167e-015 1.59028e-015 1.9773 11.8024 -2.71615 
